riter fattest.ufo
<glyph name="exclam" format="1">
  <advance width="408"/>
  <unicode hex="0021"/>
  <outline>
    <contour>
      <point x="322" y="271" type="line" smooth="yes"/>
      <point x="353" y="800" type="line"/>
      <point x="55" y="800" type="line"/>
      <point x="86" y="271" type="line"/>
    </contour>
    <contour>
      <point x="60" y="106" type="curve" smooth="yes"/>
      <point x="60" y="210"/>
      <point x="89" y="228"/>
      <point x="206" y="228" type="curve" smooth="yes"/>
      <point x="323" y="228"/>
      <point x="352" y="210"/>
      <point x="352" y="106" type="curve" smooth="yes"/>
      <point x="352" y="5"/>
      <point x="327" y="-17"/>
      <point x="206" y="-17" type="curve" smooth="yes"/>
      <point x="85" y="-17"/>
      <point x="60" y="5"/>
    </contour>
  </outline>
</glyph>
<glyph name="numbersign" format="1">
  <advance width="767"/>
  <unicode hex="0023"/>
  <outline>
    <contour>
      <point x="385" y="650" type="line"/>
      <point x="142" y="660" type="line"/>
      <point x="92" y="103" type="line"/>
      <point x="335" y="97" type="line"/>
    </contour>
    <contour>
      <point x="676" y="650" type="line"/>
      <point x="433" y="660" type="line"/>
      <point x="383" y="103" type="line"/>
      <point x="626" y="97" type="line"/>
    </contour>
    <contour>
      <point x="17" y="330" type="line"/>
      <point x="17" y="207" type="line"/>
      <point x="729" y="207" type="line"/>
      <point x="729" y="330" type="line"/>
    </contour>
    <contour>
      <point x="40" y="551" type="line"/>
      <point x="40" y="428" type="line"/>
      <point x="749" y="428" type="line"/>
      <point x="749" y="551" type="line"/>
    </contour>
  </outline>
</glyph>
<glyph name="period" format="1">
  <advance width="359"/>
  <unicode hex="002E"/>
  <outline>
    <contour>
      <point x="180" y="215" type="curve" smooth="yes"/>
      <point x="293" y="215"/>
      <point x="318" y="197"/>
      <point x="318" y="103" type="curve" smooth="yes"/>
      <point x="318" y="9"/>
      <point x="293" y="-11"/>
      <point x="180" y="-11" type="curve" smooth="yes"/>
      <point x="66" y="-11"/>
      <point x="43" y="9"/>
      <point x="43" y="103" type="curve" smooth="yes"/>
      <point x="43" y="197"/>
      <point x="66" y="215"/>
    </contour>
  </outline>
</glyph>
<glyph name="question" format="1">
  <advance width="698"/>
  <unicode hex="003F"/>
  <outline>
    <contour>
      <point x="28" y="713" type="curve"/>
      <point x="40" y="531" type="line"/>
      <point x="282" y="531" type="line"/>
      <point x="298" y="644" type="line"/>
      <point x="305" y="656"/>
      <point x="322" y="665"/>
      <point x="340" y="665" type="curve"/>
      <point x="373.0" y="665.0"/>
      <point x="391.0" y="641.176470588"/>
      <point x="391" y="590" type="curve"/>
      <point x="391" y="518"/>
      <point x="357" y="453"/>
      <point x="258" y="453" type="curve"/>
      <point x="182" y="453" type="line"/>
      <point x="191" y="262" type="line"/>
      <point x="427" y="262" type="line"/>
      <point x="439" y="324" type="line"/>
      <point x="478" y="324" type="line"/>
      <point x="580" y="324"/>
      <point x="668" y="429"/>
      <point x="668" y="573" type="curve"/>
      <point x="665" y="744"/>
      <point x="584" y="824"/>
      <point x="329" y="824" type="curve"/>
      <point x="110" y="824"/>
      <point x="43" y="739"/>
    </contour>
    <contour>
      <point x="166" y="100" type="curve" smooth="yes"/>
      <point x="166" y="204"/>
      <point x="195" y="222"/>
      <point x="312" y="222" type="curve" smooth="yes"/>
      <point x="429" y="222"/>
      <point x="458" y="204"/>
      <point x="458" y="100" type="curve" smooth="yes"/>
      <point x="458" y="-1"/>
      <point x="433" y="-23"/>
      <point x="312" y="-23" type="curve" smooth="yes"/>
      <point x="191" y="-23"/>
      <point x="166" y="-1"/>
    </contour>
  </outline>
</glyph>
<glyph name="A" format="1">
  <advance width="851"/>
  <unicode hex="0041"/>
  <outline>
    <contour>
      <point x="247" y="351" type="line"/>
      <point x="247" y="213" type="line"/>
      <point x="606" y="213" type="line"/>
      <point x="606" y="351" type="line"/>
    </contour>
    <contour>
      <point x="446" y="511" type="line"/>
      <point x="536" y="141" type="line"/>
      <point x="468" y="107" type="line"/>
      <point x="468" y="0" type="line"/>
      <point x="849" y="0" type="line"/>
      <point x="849" y="107" type="line"/>
      <point x="780" y="142" type="line"/>
      <point x="614" y="750" type="line"/>
      <point x="240" y="750" type="line"/>
      <point x="70" y="141" type="line"/>
      <point x="2" y="107" type="line"/>
      <point x="2" y="0" type="line"/>
      <point x="381" y="0" type="line"/>
      <point x="381" y="107" type="line"/>
      <point x="311" y="142" type="line"/>
      <point x="399" y="511" type="line"/>
      <point x="425" y="642" type="line"/>
    </contour>
  </outline>
</glyph>
<glyph name="B" format="1">
  <advance width="786"/>
  <unicode hex="0042"/>
  <outline>
    <contour>
      <point x="27" y="0" type="line"/>
      <point x="466" y="0" type="line"/>
      <point x="657" y="0"/>
      <point x="756" y="61"/>
      <point x="759" y="221" type="curve"/>
      <point x="759" y="375"/>
      <point x="680" y="415"/>
      <point x="538" y="415" type="curve"/>
      <point x="539" y="395" type="line"/>
      <point x="645" y="395"/>
      <point x="743" y="433"/>
      <point x="743" y="569" type="curve"/>
      <point x="743" y="722"/>
      <point x="633" y="757"/>
      <point x="465" y="757" type="curve" smooth="yes"/>
      <point x="388" y="757"/>
      <point x="119" y="752"/>
      <point x="25" y="750" type="curve"/>
      <point x="25" y="653" type="line"/>
      <point x="104" y="628" type="line"/>
      <point x="104" y="135" type="line"/>
      <point x="27" y="100" type="line"/>
    </contour>
    <contour>
      <point x="332" y="141" type="curve"/>
      <point x="358" y="77" type="line"/>
      <point x="358" y="684" type="line"/>
      <point x="336" y="627" type="line"/>
      <point x="352" y="632"/>
      <point x="397" y="634"/>
      <point x="420" y="634" type="curve"/>
      <point x="451" y="634"/>
      <point x="489" y="619"/>
      <point x="489" y="555" type="curve"/>
      <point x="489" y="479"/>
      <point x="453" y="458"/>
      <point x="413" y="458" type="curve"/>
      <point x="395" y="458"/>
      <point x="356" y="459"/>
      <point x="337" y="461" type="curve"/>
      <point x="337" y="334" type="line"/>
      <point x="356" y="338"/>
      <point x="393" y="340"/>
      <point x="417" y="340" type="curve"/>
      <point x="463" y="340"/>
      <point x="500" y="320"/>
      <point x="500" y="237" type="curve"/>
      <point x="500" y="165"/>
      <point x="462" y="133"/>
      <point x="407" y="133" type="curve"/>
      <point x="392" y="133"/>
      <point x="341" y="137"/>
    </contour>
  </outline>
</glyph>
<glyph name="C" format="1">
  <advance width="704"/>
  <unicode hex="0043"/>
  <outline>
    <contour>
      <point x="461" y="617" type="line"/>
      <point x="317.0" y="617.0"/>
      <point x="281" y="559"/>
      <point x="281" y="399" type="curve"/>
      <point x="281" y="256"/>
      <point x="319" y="150"/>
      <point x="417" y="150" type="curve"/>
      <point x="479" y="150"/>
      <point x="550" y="174"/>
      <point x="598" y="225" type="curve"/>
      <point x="684" y="95" type="line"/>
      <point x="638" y="55"/>
      <point x="548" y="-16"/>
      <point x="376" y="-16" type="curve"/>
      <point x="92" y="-16"/>
      <point x="24" y="154"/>
      <point x="24" y="403" type="curve"/>
      <point x="24" y="651"/>
      <point x="126" y="770"/>
      <point x="379" y="770" type="curve" smooth="yes"/>
      <point x="497" y="770"/>
      <point x="570" y="757"/>
      <point x="659" y="715" type="curve"/>
      <point x="645" y="452" type="line"/>
      <point x="462" y="452" type="line"/>
      <point x="421" y="686" type="line"/>
    </contour>
  </outline>
</glyph>
<glyph name="D" format="1">
  <advance width="827.992038053"/>
  <unicode hex="0044"/>
  <outline>
    <contour>
      <point x="321" y="616" type="line"/>
      <point x="350.697160378" y="620.751545661"/>
      <point x="391.346153846" y="624.0"/>
      <point x="414" y="624" type="curve"/>
      <point x="478" y="624"/>
      <point x="535" y="588"/>
      <point x="535" y="383" type="curve"/>
      <point x="535" y="180"/>
      <point x="482.928057554" y="134.0"/>
      <point x="381" y="134" type="curve"/>
      <point x="352" y="134"/>
      <point x="324" y="136"/>
      <point x="303" y="142" type="curve"/>
      <point x="350" y="59" type="line"/>
      <point x="350" y="668" type="line"/>
    </contour>
    <contour>
      <point x="28" y="750" type="curve"/>
      <point x="28" y="628" type="line"/>
      <point x="97" y="605" type="line"/>
      <point x="97" y="145" type="line"/>
      <point x="30" y="112" type="line"/>
      <point x="30" y="0" type="line"/>
      <point x="430" y="0" type="line"/>
      <point x="699" y="0"/>
      <point x="803.0" y="92.0"/>
      <point x="803" y="410" type="curve" smooth="yes"/>
      <point x="803.0" y="705.0"/>
      <point x="660" y="757"/>
      <point x="424" y="757" type="curve"/>
      <point x="360" y="757"/>
      <point x="93.1958960339" y="751.693399897"/>
    </contour>
  </outline>
</glyph>
<glyph name="E" format="1">
  <advance width="709"/>
  <unicode hex="0045"/>
  <outline>
    <contour>
      <point x="171" y="461" type="line"/>
      <point x="556" y="461" type="line"/>
      <point x="556" y="310" type="line"/>
      <point x="171" y="310" type="line"/>
    </contour>
    <contour>
      <point x="687" y="247" type="line"/>
      <point x="691" y="0" type="line"/>
      <point x="28" y="0" type="line"/>
      <point x="28" y="112" type="line"/>
      <point x="98" y="145" type="line"/>
      <point x="98" y="605" type="line"/>
      <point x="28" y="635" type="line"/>
      <point x="28" y="750" type="line"/>
      <point x="687" y="750" type="line"/>
      <point x="681" y="515" type="line"/>
      <point x="482" y="515" type="line"/>
      <point x="458" y="601" type="line"/>
      <point x="352" y="601" type="line"/>
      <point x="352" y="146" type="line"/>
      <point x="462" y="146" type="line"/>
      <point x="491" y="247" type="line"/>
    </contour>
  </outline>
</glyph>
<glyph name="F" format="1">
  <advance width="671"/>
  <unicode hex="0046"/>
  <outline>
    <contour>
      <point x="291" y="418" type="line"/>
      <point x="567" y="418" type="line"/>
      <point x="567" y="268" type="line"/>
      <point x="291" y="268" type="line"/>
    </contour>
    <contour>
      <point x="475" y="0" type="line"/>
      <point x="28" y="0" type="line"/>
      <point x="28" y="112" type="line"/>
      <point x="98" y="146" type="line"/>
      <point x="98" y="605" type="line"/>
      <point x="28" y="635" type="line"/>
      <point x="28" y="750" type="line"/>
      <point x="668" y="750" type="line"/>
      <point x="657" y="490" type="line"/>
      <point x="468" y="490" type="line"/>
      <point x="444" y="601" type="line"/>
      <point x="352" y="601" type="line"/>
      <point x="352" y="146" type="line"/>
      <point x="475" y="112" type="line"/>
    </contour>
  </outline>
</glyph>
<glyph name="G" format="1">
  <advance width="777"/>
  <unicode hex="0047"/>
  <outline>
    <contour>
      <point x="24" y="392" type="curve" smooth="yes"/>
      <point x="24" y="132"/>
      <point x="112" y="-18"/>
      <point x="418" y="-18" type="curve"/>
      <point x="568" y="-18"/>
      <point x="673" y="21"/>
      <point x="740" y="63" type="curve"/>
      <point x="740" y="396" type="line"/>
      <point x="425" y="396" type="line"/>
      <point x="425" y="280" type="line"/>
      <point x="503" y="251" type="line"/>
      <point x="503" y="154" type="line"/>
      <point x="489" y="138"/>
      <point x="459" y="126"/>
      <point x="426" y="126" type="curve"/>
      <point x="324" y="126"/>
      <point x="308" y="221"/>
      <point x="308" y="398" type="curve"/>
      <point x="309" y="550"/>
      <point x="331" y="639"/>
      <point x="417" y="639" type="curve"/>
      <point x="446" y="639"/>
      <point x="464" y="634"/>
      <point x="494" y="609" type="curve"/>
      <point x="459" y="661" type="line"/>
      <point x="481" y="586"/>
      <point x="498" y="521"/>
      <point x="504" y="506" type="curve"/>
      <point x="713" y="506" type="line"/>
      <point x="724" y="706" type="line"/>
      <point x="642" y="749"/>
      <point x="539" y="770"/>
      <point x="416" y="770" type="curve"/>
      <point x="160" y="770"/>
      <point x="24" y="648"/>
    </contour>
  </outline>
</glyph>
<glyph name="H" format="1">
  <advance width="923"/>
  <unicode hex="0048"/>
  <outline>
    <contour>
      <point x="296" y="471" type="line"/>
      <point x="296" y="313" type="line"/>
      <point x="635" y="313" type="line"/>
      <point x="635" y="471" type="line"/>
    </contour>
    <contour>
      <point x="433" y="0" type="line"/>
      <point x="433" y="112" type="line"/>
      <point x="368" y="145" type="line"/>
      <point x="368" y="605" type="line"/>
      <point x="433" y="633" type="line"/>
      <point x="433" y="750" type="line"/>
      <point x="28" y="750" type="line"/>
      <point x="28" y="633" type="line"/>
      <point x="108" y="605" type="line"/>
      <point x="108" y="145" type="line"/>
      <point x="28" y="112" type="line"/>
      <point x="28" y="0" type="line"/>
    </contour>
    <contour>
      <point x="895" y="0" type="line"/>
      <point x="895" y="112" type="line"/>
      <point x="815" y="145" type="line"/>
      <point x="815" y="605" type="line"/>
      <point x="895" y="633" type="line"/>
      <point x="895" y="750" type="line"/>
      <point x="490" y="750" type="line"/>
      <point x="490" y="633" type="line"/>
      <point x="555" y="605" type="line"/>
      <point x="555" y="145" type="line"/>
      <point x="489" y="112" type="line"/>
      <point x="489" y="0" type="line"/>
    </contour>
  </outline>
</glyph>
<glyph name="I" format="1">
  <advance width="448"/>
  <unicode hex="0049"/>
  <outline>
    <contour>
      <point x="430" y="0" type="line"/>
      <point x="430" y="102" type="line"/>
      <point x="355" y="136" type="line"/>
      <point x="355" y="615" type="line"/>
      <point x="430" y="649" type="line"/>
      <point x="430" y="750" type="line"/>
      <point x="18" y="750" type="line"/>
      <point x="18" y="649" type="line"/>
      <point x="93" y="615" type="line"/>
      <point x="93" y="136" type="line"/>
      <point x="18" y="102" type="line"/>
      <point x="18" y="0" type="line"/>
    </contour>
  </outline>
</glyph>
<glyph name="J" format="1">
  <advance width="432"/>
  <unicode hex="004A"/>
  <outline>
    <contour>
      <point x="-43" y="-179" type="line"/>
      <point x="264" y="-177"/>
      <point x="350" y="-23"/>
      <point x="352" y="136" type="curve"/>
      <point x="352" y="615" type="line"/>
      <point x="422" y="643" type="line"/>
      <point x="422" y="750" type="line"/>
      <point x="0" y="750" type="line"/>
      <point x="0" y="643" type="line"/>
      <point x="100" y="615" type="line"/>
      <point x="100" y="146" type="line"/>
      <point x="100" y="57"/>
      <point x="85" y="-43"/>
      <point x="-43" y="-45" type="curve"/>
    </contour>
  </outline>
</glyph>
<glyph name="K" format="1">
  <advance width="806"/>
  <unicode hex="004B"/>
  <outline>
    <contour>
      <point x="806" y="0" type="line"/>
      <point x="806" y="100" type="line"/>
      <point x="742" y="125" type="line"/>
      <point x="540" y="504" type="line"/>
      <point x="375" y="376" type="line"/>
      <point x="532" y="0" type="line"/>
    </contour>
    <contour>
      <point x="15" y="0" type="line"/>
      <point x="409" y="0" type="line"/>
      <point x="409" y="111" type="line"/>
      <point x="337" y="145" type="line"/>
      <point x="337" y="625" type="line"/>
      <point x="338" y="625" type="line"/>
      <point x="401" y="649" type="line"/>
      <point x="401" y="750" type="line"/>
      <point x="8" y="750" type="line"/>
      <point x="8" y="649" type="line"/>
      <point x="88" y="625" type="line"/>
      <point x="88" y="145" type="line"/>
      <point x="15" y="111" type="line"/>
    </contour>
    <contour>
      <point x="316" y="210" type="line"/>
      <point x="698" y="625" type="line"/>
      <point x="775" y="645" type="line"/>
      <point x="775" y="750" type="line"/>
      <point x="442" y="750" type="line"/>
      <point x="442" y="651" type="line"/>
      <point x="499" y="625" type="line"/>
      <point x="242" y="299" type="line"/>
    </contour>
  </outline>
</glyph>
<glyph name="L" format="1">
  <advance width="652"/>
  <unicode hex="004C"/>
  <outline>
    <contour>
      <point x="419" y="146" type="line"/>
      <point x="340" y="146" type="line"/>
      <point x="340" y="615" type="line"/>
      <point x="445" y="639" type="line"/>
      <point x="445" y="750" type="line"/>
      <point x="19" y="750" type="line"/>
      <point x="19" y="639" type="line"/>
      <point x="88" y="615" type="line"/>
      <point x="88" y="146" type="line"/>
      <point x="18" y="112" type="line"/>
      <point x="18" y="0" type="line"/>
      <point x="652" y="0" type="line"/>
      <point x="650" y="296" type="line"/>
      <point x="456" y="296" type="line"/>
    </contour>
  </outline>
</glyph>
<glyph name="M" format="1">
  <advance width="1091"/>
  <unicode hex="004D"/>
  <outline>
    <contour>
      <point x="767" y="626" type="line"/>
      <point x="761" y="452" type="line"/>
      <point x="761" y="145" type="line"/>
      <point x="713" y="111" type="line"/>
      <point x="713" y="0" type="line"/>
      <point x="1086" y="0" type="line"/>
      <point x="1086" y="111" type="line"/>
      <point x="1007" y="145" type="line"/>
      <point x="997" y="605" type="line"/>
      <point x="1060" y="639" type="line"/>
      <point x="1060" y="750" type="line"/>
      <point x="610" y="750" type="line"/>
      <point x="537" y="201" type="line"/>
      <point x="557" y="201" type="line"/>
      <point x="472" y="750" type="line"/>
      <point x="21" y="750" type="line"/>
      <point x="21" y="639" type="line"/>
      <point x="84" y="605" type="line"/>
      <point x="74" y="145" type="line"/>
      <point x="5" y="111" type="line"/>
      <point x="5" y="0" type="line"/>
      <point x="375" y="0" type="line"/>
      <point x="375" y="111" type="line"/>
      <point x="318" y="145" type="line"/>
      <point x="318" y="453" type="line"/>
      <point x="314" y="633" type="line"/>
      <point x="309" y="633" type="line"/>
      <point x="331" y="451" type="line"/>
      <point x="426" y="20" type="line"/>
      <point x="660" y="20" type="line"/>
      <point x="743" y="451" type="line"/>
      <point x="772" y="625" type="line"/>
    </contour>
  </outline>
</glyph>
<glyph name="N" format="1">
  <advance width="847"/>
  <unicode hex="004E"/>
  <outline>
    <contour>
      <point x="103" y="750" type="line"/>
      <point x="103" y="147" type="line"/>
      <point x="28" y="112" type="line"/>
      <point x="28" y="0" type="line"/>
      <point x="362" y="0" type="line"/>
      <point x="362" y="112" type="line"/>
      <point x="287" y="147" type="line"/>
      <point x="277" y="390" type="line"/>
      <point x="245" y="546" type="line"/>
      <point x="263" y="750" type="line"/>
    </contour>
    <contour>
      <point x="213" y="603" type="line"/>
      <point x="213" y="750" type="line"/>
      <point x="28" y="750" type="line"/>
      <point x="28" y="637" type="line"/>
      <point x="103" y="603" type="line"/>
    </contour>
    <contour>
      <point x="597" y="0" type="line"/>
      <point x="750" y="0" type="line"/>
      <point x="750" y="603" type="line"/>
      <point x="825" y="637" type="line"/>
      <point x="825" y="750" type="line"/>
      <point x="502" y="750" type="line"/>
      <point x="502" y="637" type="line"/>
      <point x="577" y="603" type="line"/>
      <point x="586" y="336" type="line"/>
      <point x="613" y="179" type="line"/>
    </contour>
    <contour>
      <point x="101" y="750" type="line"/>
      <point x="249" y="520" type="line"/>
      <point x="292" y="396" type="line"/>
      <point x="486" y="0" type="line"/>
      <point x="657" y="0" type="line"/>
      <point x="619" y="172" type="line"/>
      <point x="566" y="355" type="line"/>
      <point x="365" y="750" type="line"/>
    </contour>
  </outline>
</glyph>
<glyph name="O" format="1">
  <advance width="774.009461716"/>
  <unicode hex="004F"/>
  <outline>
    <contour>
      <point x="480" y="377" type="curve" smooth="yes"/>
      <point x="478" y="526"/>
      <point x="468" y="621"/>
      <point x="388" y="621" type="curve" smooth="yes"/>
      <point x="308" y="621"/>
      <point x="294" y="526"/>
      <point x="294" y="377" type="curve" smooth="yes"/>
      <point x="294" y="228"/>
      <point x="309" y="147"/>
      <point x="388" y="147" type="curve" smooth="yes"/>
      <point x="468" y="147"/>
      <point x="482" y="228"/>
    </contour>
    <contour>
      <point x="26" y="377" type="curve"/>
      <point x="27" y="640"/>
      <point x="110" y="773"/>
      <point x="388" y="773" type="curve" smooth="yes"/>
      <point x="665" y="773"/>
      <point x="748" y="640"/>
      <point x="748" y="377" type="curve"/>
      <point x="749" y="108"/>
      <point x="671" y="-19"/>
      <point x="387" y="-19" type="curve" smooth="yes"/>
      <point x="111" y="-19"/>
      <point x="28" y="108"/>
    </contour>
  </outline>
</glyph>
<glyph name="P" format="1">
  <advance width="727"/>
  <unicode hex="0050"/>
  <outline>
    <contour>
      <point x="20" y="0" type="line"/>
      <point x="454" y="0" type="line"/>
      <point x="454" y="104" type="line"/>
      <point x="338" y="137" type="line"/>
      <point x="338" y="692" type="line"/>
      <point x="300" y="630" type="line"/>
      <point x="315" y="631"/>
      <point x="380" y="632"/>
      <point x="407" y="632" type="curve" smooth="yes"/>
      <point x="458" y="632"/>
      <point x="475" y="577"/>
      <point x="475" y="508" type="curve"/>
      <point x="475" y="431"/>
      <point x="455" y="380"/>
      <point x="396" y="380" type="curve"/>
      <point x="303" y="380" type="line"/>
      <point x="309" y="249" type="line"/>
      <point x="439" y="249" type="line"/>
      <point x="616" y="249"/>
      <point x="720" y="306"/>
      <point x="720" y="503" type="curve"/>
      <point x="720" y="731"/>
      <point x="621" y="757"/>
      <point x="419" y="757" type="curve"/>
      <point x="327" y="757"/>
      <point x="111" y="752"/>
      <point x="18" y="750" type="curve"/>
      <point x="18" y="648" type="line"/>
      <point x="87" y="623" type="line"/>
      <point x="87" y="135" type="line" smooth="yes"/>
      <point x="20" y="104" type="line"/>
    </contour>
  </outline>
</glyph>
<glyph name="Q" format="1">
  <advance width="830"/>
  <unicode hex="0051"/>
  <outline>
    <contour>
      <point x="599" y="76" type="line"/>
      <point x="584" y="70"/>
      <point x="565" y="46"/>
      <point x="565" y="6" type="curve" smooth="yes"/>
      <point x="565" y="-51"/>
      <point x="661" y="-81"/>
      <point x="745" y="-57" type="curve"/>
      <point x="711" y="-245" type="line"/>
      <point x="570" y="-266"/>
      <point x="410" y="-208"/>
      <point x="410" y="-70" type="curve"/>
      <point x="410" y="3"/>
      <point x="435" y="64"/>
      <point x="475" y="109" type="curve"/>
    </contour>
    <component base="O"/>
  </outline>
</glyph>
<glyph name="R" format="1">
  <advance width="719"/>
  <unicode hex="0052"/>
  <outline>
    <contour>
      <point x="288" y="419" type="line"/>
      <point x="281" y="277" type="line"/>
      <point x="468" y="277" type="line"/>
      <point x="610" y="277"/>
      <point x="691" y="373"/>
      <point x="691" y="528" type="curve"/>
      <point x="691" y="727"/>
      <point x="592" y="757"/>
      <point x="462" y="757" type="curve" smooth="yes"/>
      <point x="403" y="757"/>
      <point x="143" y="750"/>
      <point x="21" y="750" type="curve"/>
      <point x="21" y="638" type="line"/>
      <point x="60" y="613" type="line"/>
      <point x="60" y="135" type="line"/>
      <point x="23" y="104" type="line"/>
      <point x="23" y="0" type="line"/>
      <point x="360" y="0" type="line"/>
      <point x="360" y="104" type="line"/>
      <point x="312" y="137" type="line"/>
      <point x="312" y="639" type="line"/>
      <point x="295" y="619" type="line"/>
      <point x="355" y="619" type="line"/>
      <point x="409" y="619"/>
      <point x="435" y="600"/>
      <point x="435" y="530" type="curve"/>
      <point x="435" y="453"/>
      <point x="421" y="419"/>
      <point x="354" y="419" type="curve"/>
    </contour>
    <contour>
      <point x="733" y="0" type="line"/>
      <point x="733" y="101" type="line"/>
      <point x="683" y="135" type="line"/>
      <point x="571" y="350" type="line"/>
      <point x="343" y="328" type="line"/>
      <point x="468" y="0" type="line"/>
    </contour>
  </outline>
</glyph>
<glyph name="S" format="1">
  <advance width="686"/>
  <unicode hex="0053"/>
  <outline>
    <contour>
      <point x="415" y="206" type="curve"/>
      <point x="415" y="159"/>
      <point x="393" y="150"/>
      <point x="343" y="150" type="curve"/>
      <point x="301" y="150"/>
      <point x="277" y="176"/>
      <point x="275" y="180" type="curve"/>
      <point x="267" y="252" type="line"/>
      <point x="37" y="252" type="line"/>
      <point x="32" y="45" type="line"/>
      <point x="46" y="35"/>
      <point x="134" y="-15"/>
      <point x="359" y="-15" type="curve"/>
      <point x="555" y="-15"/>
      <point x="668" y="38"/>
      <point x="668" y="219" type="curve"/>
      <point x="668" y="379"/>
      <point x="611" y="434"/>
      <point x="424" y="471" type="curve" smooth="yes"/>
      <point x="296" y="496"/>
      <point x="280" y="520"/>
      <point x="280" y="557" type="curve"/>
      <point x="280" y="592"/>
      <point x="297" y="618"/>
      <point x="340" y="618" type="curve"/>
      <point x="378" y="618"/>
      <point x="396" y="603"/>
      <point x="401" y="595" type="curve"/>
      <point x="412" y="514" type="line"/>
      <point x="625" y="514" type="line"/>
      <point x="632" y="715" type="line"/>
      <point x="623" y="728"/>
      <point x="547" y="771"/>
      <point x="337" y="771" type="curve"/>
      <point x="105" y="771"/>
      <point x="35" y="695"/>
      <point x="35" y="539" type="curve"/>
      <point x="36" y="410"/>
      <point x="66" y="344"/>
      <point x="235" y="302" type="curve" smooth="yes"/>
      <point x="388" y="264"/>
      <point x="415" y="248"/>
    </contour>
  </outline>
</glyph>
<glyph name="T" format="1">
  <advance width="744"/>
  <unicode hex="0054"/>
  <outline>
    <contour>
      <point x="245" y="610" type="line"/>
      <point x="211" y="610" type="line"/>
      <point x="196" y="479" type="line"/>
      <point x="20" y="479" type="line"/>
      <point x="10" y="750" type="line"/>
      <point x="734" y="750" type="line"/>
      <point x="724" y="479" type="line"/>
      <point x="548" y="479" type="line"/>
      <point x="533" y="610" type="line"/>
      <point x="499" y="610" type="line"/>
      <point x="499" y="142" type="line"/>
      <point x="597" y="112" type="line"/>
      <point x="597" y="0" type="line"/>
      <point x="147" y="0" type="line"/>
      <point x="147" y="112" type="line"/>
      <point x="245" y="142" type="line"/>
    </contour>
  </outline>
</glyph>
<glyph name="U" format="1">
  <advance width="862"/>
  <unicode hex="0055"/>
  <outline>
    <contour>
      <point x="89" y="226" type="line"/>
      <point x="89" y="95"/>
      <point x="181" y="-19"/>
      <point x="435" y="-19" type="curve" smooth="yes"/>
      <point x="682" y="-19"/>
      <point x="774" y="96"/>
      <point x="777" y="226" type="curve"/>
      <point x="777" y="605" type="line"/>
      <point x="847" y="633" type="line"/>
      <point x="847" y="750" type="line"/>
      <point x="461" y="750" type="line"/>
      <point x="461" y="633" type="line"/>
      <point x="521" y="605" type="line"/>
      <point x="521" y="276" type="line"/>
      <point x="520" y="217"/>
      <point x="504" y="157"/>
      <point x="435" y="157" type="curve" smooth="yes"/>
      <point x="366" y="157"/>
      <point x="354" y="216"/>
      <point x="354" y="276" type="curve"/>
      <point x="354" y="605" type="line"/>
      <point x="414" y="633" type="line"/>
      <point x="414" y="750" type="line"/>
      <point x="19" y="750" type="line"/>
      <point x="19" y="633" type="line"/>
      <point x="89" y="605" type="line"/>
    </contour>
  </outline>
</glyph>
<glyph name="V" format="1">
  <advance width="850"/>
  <unicode hex="0056"/>
  <outline>
    <contour>
      <point x="431" y="156" type="line"/>
      <point x="417" y="273" type="line"/>
      <point x="328" y="606" type="line"/>
      <point x="408" y="633" type="line"/>
      <point x="408" y="750" type="line"/>
      <point x="5" y="750" type="line"/>
      <point x="5" y="633" type="line"/>
      <point x="60" y="608" type="line"/>
      <point x="291" y="0" type="line"/>
      <point x="549" y="0" type="line"/>
      <point x="790" y="608" type="line"/>
      <point x="845" y="633" type="line"/>
      <point x="845" y="750" type="line"/>
      <point x="455" y="750" type="line"/>
      <point x="455" y="633" type="line"/>
      <point x="537" y="606" type="line"/>
      <point x="447" y="272" type="line"/>
    </contour>
  </outline>
</glyph>
<glyph name="W" format="1">
  <advance width="1159"/>
  <unicode hex="0057"/>
  <outline>
    <contour>
      <point x="564" y="565" type="line"/>
      <point x="634" y="0" type="line"/>
      <point x="969" y="0" type="line"/>
      <point x="1100" y="606" type="line"/>
      <point x="1154" y="633" type="line"/>
      <point x="1154" y="750" type="line"/>
      <point x="763" y="750" type="line"/>
      <point x="763" y="633" type="line"/>
      <point x="852" y="606" type="line"/>
      <point x="798" y="277" type="line"/>
      <point x="789" y="159" type="line"/>
      <point x="772" y="277" type="line"/>
      <point x="685" y="726" type="line"/>
      <point x="470" y="726" type="line"/>
      <point x="382" y="277" type="line"/>
      <point x="373" y="159" type="line"/>
      <point x="364" y="277" type="line"/>
      <point x="318" y="606" type="line"/>
      <point x="405" y="633" type="line"/>
      <point x="405" y="750" type="line"/>
      <point x="5" y="750" type="line"/>
      <point x="5" y="633" type="line"/>
      <point x="59" y="607" type="line"/>
      <point x="176" y="0" type="line"/>
      <point x="520" y="0" type="line"/>
      <point x="588" y="565" type="line"/>
    </contour>
  </outline>
</glyph>
<glyph name="X" format="1">
  <advance width="842"/>
  <unicode hex="0058"/>
  <outline>
    <contour>
      <point x="389" y="396" type="line"/>
      <point x="584" y="356" type="line"/>
      <point x="770" y="617" type="line"/>
      <point x="832" y="642" type="line"/>
      <point x="832" y="750" type="line"/>
      <point x="457" y="750" type="line"/>
      <point x="457" y="641" type="line"/>
      <point x="509" y="617" type="line"/>
    </contour>
    <contour>
      <point x="271" y="442" type="line"/>
      <point x="68" y="135" type="line"/>
      <point x="0" y="109" type="line"/>
      <point x="0" y="0" type="line"/>
      <point x="385" y="0" type="line"/>
      <point x="385" y="109" type="line"/>
      <point x="331" y="135" type="line"/>
      <point x="451" y="346" type="line"/>
    </contour>
    <contour>
      <point x="10" y="750" type="line"/>
      <point x="10" y="641" type="line"/>
      <point x="70" y="617" type="line"/>
      <point x="247" y="324" type="line"/>
      <point x="399" y="325" type="line"/>
      <point x="502" y="135" type="line"/>
      <point x="453" y="109" type="line"/>
      <point x="453" y="0" type="line"/>
      <point x="842" y="0" type="line"/>
      <point x="842" y="109" type="line"/>
      <point x="778" y="135" type="line"/>
      <point x="563" y="450" type="line"/>
      <point x="434" y="450" type="line"/>
      <point x="342" y="617" type="line"/>
      <point x="394" y="641" type="line"/>
      <point x="394" y="750" type="line"/>
    </contour>
  </outline>
</glyph>
<glyph name="Y" format="1">
  <advance width="849"/>
  <unicode hex="0059"/>
  <outline>
    <contour>
      <point x="429" y="337" type="line"/>
      <point x="418" y="425" type="line"/>
      <point x="354" y="615" type="line"/>
      <point x="404" y="643" type="line"/>
      <point x="404" y="750" type="line"/>
      <point x="16" y="750" type="line"/>
      <point x="16" y="643" type="line"/>
      <point x="86" y="615" type="line"/>
      <point x="283" y="242" type="line"/>
      <point x="283" y="136" type="line"/>
      <point x="208" y="101" type="line"/>
      <point x="208" y="0" type="line"/>
      <point x="617" y="0" type="line"/>
      <point x="617" y="101" type="line"/>
      <point x="542" y="136" type="line"/>
      <point x="542" y="242" type="line"/>
      <point x="760" y="615" type="line"/>
      <point x="829" y="643" type="line"/>
      <point x="829" y="750" type="line"/>
      <point x="453" y="750" type="line"/>
      <point x="453" y="643" type="line"/>
      <point x="507" y="615" type="line"/>
      <point x="442" y="426" type="line"/>
    </contour>
  </outline>
</glyph>
<glyph name="Z" format="1">
  <advance width="722"/>
  <unicode hex="005A"/>
  <outline>
    <contour>
      <point x="479" y="150" type="line"/>
      <point x="523" y="325" type="line"/>
      <point x="706" y="325" type="line"/>
      <point x="704" y="0" type="line"/>
      <point x="23" y="0" type="line"/>
      <point x="21" y="177" type="line"/>
      <point x="472" y="660" type="line"/>
      <point x="583" y="613" type="line"/>
      <point x="262" y="613" type="line"/>
      <point x="222" y="454" type="line"/>
      <point x="38" y="454" type="line"/>
      <point x="38" y="750" type="line"/>
      <point x="693" y="750" type="line"/>
      <point x="693" y="573" type="line"/>
      <point x="245" y="68" type="line"/>
      <point x="244" y="150" type="line"/>
    </contour>
  </outline>
</glyph>
<glyph name="a" format="1">
  <advance width="642"/>
  <unicode hex="0061"/>
  <outline>
    <contour>
      <point x="367" y="103" type="line"/>
      <point x="367" y="0" type="line"/>
      <point x="634" y="0" type="line"/>
      <point x="634" y="107" type="line"/>
      <point x="605" y="135" type="line"/>
      <point x="605" y="376" type="line"/>
      <point x="605" y="513"/>
      <point x="516" y="571"/>
      <point x="361" y="571" type="curve"/>
      <point x="236" y="571"/>
      <point x="124" y="545"/>
      <point x="41" y="508" type="curve"/>
      <point x="57" y="359" type="line"/>
      <point x="237" y="359" type="line"/>
      <point x="253" y="398" type="line"/>
      <point x="262" y="404"/>
      <point x="276" y="418"/>
      <point x="306" y="418" type="curve"/>
      <point x="342" y="418"/>
      <point x="360" y="400"/>
      <point x="360" y="375" type="curve"/>
      <point x="360" y="122" type="line"/>
    </contour>
    <contour>
      <point x="398" y="220" type="curve"/>
      <point x="439" y="324" type="line"/>
      <point x="394" y="328"/>
      <point x="320" y="332"/>
      <point x="254" y="332" type="curve"/>
      <point x="125" y="332"/>
      <point x="13" y="288"/>
      <point x="13" y="158" type="curve"/>
      <point x="13" y="53"/>
      <point x="69" y="-10"/>
      <point x="189" y="-10" type="curve"/>
      <point x="328" y="-10"/>
      <point x="383" y="66"/>
      <point x="416" y="99" type="curve"/>
      <point x="397" y="201" type="line"/>
      <point x="379" y="185"/>
      <point x="322" y="135"/>
      <point x="282" y="135" type="curve" smooth="yes"/>
      <point x="255" y="135"/>
      <point x="239" y="150"/>
      <point x="239" y="182" type="curve"/>
      <point x="239" y="216"/>
      <point x="272" y="230"/>
      <point x="306" y="230" type="curve" smooth="yes"/>
      <point x="346" y="230"/>
      <point x="376" y="224"/>
    </contour>
  </outline>
</glyph>
<glyph name="b" format="1">
  <advance width="672"/>
  <unicode hex="0062"/>
  <outline>
    <contour>
      <point x="2" y="800" type="line"/>
      <point x="2" y="689" type="line"/>
      <point x="42" y="656" type="line"/>
      <point x="42" y="1" type="line"/>
      <point x="213" y="1" type="line"/>
      <point x="288" y="92" type="line"/>
      <point x="288" y="800" type="line"/>
    </contour>
    <contour>
      <point x="259" y="212" type="curve"/>
      <point x="205" y="136" type="line"/>
      <point x="205" y="101"/>
      <point x="274" y="-16"/>
      <point x="420" y="-16" type="curve"/>
      <point x="573" y="-16"/>
      <point x="645" y="81"/>
      <point x="645" y="293" type="curve" smooth="yes"/>
      <point x="645" y="514"/>
      <point x="558" y="574"/>
      <point x="451" y="574" type="curve"/>
      <point x="303" y="574"/>
      <point x="255" y="472"/>
      <point x="239" y="420" type="curve"/>
      <point x="267" y="361" type="line"/>
      <point x="279" y="393"/>
      <point x="302" y="412"/>
      <point x="342" y="412" type="curve"/>
      <point x="371" y="412"/>
      <point x="389" y="388"/>
      <point x="389" y="291" type="curve"/>
      <point x="389" y="192"/>
      <point x="382" y="146"/>
      <point x="341" y="146" type="curve"/>
      <point x="295" y="146"/>
      <point x="275" y="187"/>
    </contour>
  </outline>
</glyph>
<glyph name="c" format="1">
  <advance width="592"/>
  <unicode hex="0063"/>
  <outline>
    <contour>
      <point x="572" y="491" type="curve"/>
      <point x="572" y="287" type="line"/>
      <point x="380" y="287" type="line"/>
      <point x="373" y="381" type="line"/>
      <point x="366" y="402"/>
      <point x="358" y="419"/>
      <point x="328" y="419" type="curve"/>
      <point x="292" y="419"/>
      <point x="272" y="387"/>
      <point x="272" y="276" type="curve" smooth="yes"/>
      <point x="272" y="192"/>
      <point x="299" y="153"/>
      <point x="368" y="153" type="curve"/>
      <point x="441" y="153"/>
      <point x="501" y="178"/>
      <point x="547" y="204" type="curve"/>
      <point x="587" y="53" type="line"/>
      <point x="522" y="10"/>
      <point x="453" y="-15"/>
      <point x="337" y="-15" type="curve"/>
      <point x="121" y="-15"/>
      <point x="17" y="68"/>
      <point x="17" y="270" type="curve" smooth="yes"/>
      <point x="17" y="481"/>
      <point x="110" y="572"/>
      <point x="324" y="572" type="curve" smooth="yes"/>
      <point x="449" y="572"/>
      <point x="522" y="536"/>
    </contour>
  </outline>
</glyph>
<glyph name="d" format="1">
  <advance width="667"/>
  <unicode hex="0064"/>
  <outline>
    <contour>
      <point x="408" y="1" type="line"/>
      <point x="375" y="114" type="line"/>
      <point x="375" y="654" type="line"/>
      <point x="335" y="689" type="line"/>
      <point x="335" y="800" type="line"/>
      <point x="622" y="800" type="line"/>
      <point x="622" y="138" type="line"/>
      <point x="653" y="97" type="line"/>
      <point x="653" y="1" type="line"/>
    </contour>
    <contour>
      <point x="450" y="166" type="line"/>
      <point x="425" y="101"/>
      <point x="382" y="-16"/>
      <point x="241" y="-16" type="curve"/>
      <point x="101" y="-16"/>
      <point x="17" y="81"/>
      <point x="17" y="263" type="curve"/>
      <point x="17" y="461"/>
      <point x="69" y="572"/>
      <point x="235" y="572" type="curve"/>
      <point x="366" y="572"/>
      <point x="423" y="486"/>
      <point x="446" y="436" type="curve"/>
      <point x="404" y="376" type="line"/>
      <point x="380" y="397"/>
      <point x="359" y="413"/>
      <point x="325" y="413" type="curve" smooth="yes"/>
      <point x="280" y="413"/>
      <point x="273" y="352"/>
      <point x="273" y="263" type="curve" smooth="yes"/>
      <point x="273" y="173"/>
      <point x="296" y="143"/>
      <point x="320" y="143" type="curve"/>
      <point x="366" y="143"/>
      <point x="387" y="189"/>
      <point x="407" y="256" type="curve"/>
    </contour>
  </outline>
</glyph>
<glyph name="e" format="1">
  <advance width="633"/>
  <unicode hex="0065"/>
  <outline>
    <contour>
      <point x="333" y="-14" type="curve"/>
      <point x="459" y="-14"/>
      <point x="549" y="5"/>
      <point x="612" y="40" type="curve"/>
      <point x="577" y="189" type="line"/>
      <point x="524" y="157"/>
      <point x="458" y="141"/>
      <point x="398" y="141" type="curve"/>
      <point x="302.31496063" y="141.0"/>
      <point x="274.0" y="172.0"/>
      <point x="274" y="315" type="curve"/>
      <point x="274.0" y="398.0"/>
      <point x="289.2" y="433.0"/>
      <point x="331" y="433" type="curve"/>
      <point x="365.981818182" y="433.0"/>
      <point x="383.0" y="403.0"/>
      <point x="383" y="366" type="curve" smooth="yes"/>
      <point x="383" y="343"/>
      <point x="382" y="321"/>
      <point x="382" y="311" type="curve"/>
      <point x="408" y="331" type="line"/>
      <point x="224" y="331" type="line"/>
      <point x="226" y="217" type="line"/>
      <point x="602" y="217" type="line"/>
      <point x="604" y="226"/>
      <point x="608" y="297"/>
      <point x="608" y="338" type="curve"/>
      <point x="608" y="483"/>
      <point x="534" y="572"/>
      <point x="329" y="572" type="curve" smooth="yes"/>
      <point x="130" y="572"/>
      <point x="28" y="479"/>
      <point x="28" y="279" type="curve" smooth="yes"/>
      <point x="28" y="75"/>
      <point x="122" y="-14"/>
    </contour>
  </outline>
</glyph>
<glyph name="f" format="1">
  <advance width="451"/>
  <unicode hex="0066"/>
  <outline>
    <contour>
      <point x="9" y="413" type="line"/>
      <point x="437" y="413" type="line"/>
      <point x="437" y="555" type="line"/>
      <point x="9" y="555" type="line"/>
    </contour>
    <contour>
      <point x="401.0" y="0.0" type="line"/>
      <point x="401.0" y="109.0" type="line"/>
      <point x="307.0" y="135.0" type="line"/>
      <point x="307.0" y="607.0" type="line"/>
      <point x="307" y="647"/>
      <point x="329" y="677"/>
      <point x="371" y="677" type="curve"/>
      <point x="405" y="677"/>
      <point x="427" y="672"/>
      <point x="445" y="664" type="curve"/>
      <point x="477" y="788" type="line"/>
      <point x="446" y="799"/>
      <point x="390" y="812"/>
      <point x="312" y="812" type="curve"/>
      <point x="154" y="812"/>
      <point x="68.0" y="763.0"/>
      <point x="68.0" y="602.0" type="curve"/>
      <point x="68.0" y="135.0" type="line"/>
      <point x="26.0" y="109.0" type="line"/>
      <point x="26.0" y="0.0" type="line"/>
    </contour>
  </outline>
</glyph>
<glyph name="g" format="1">
  <advance width="665"/>
  <unicode hex="0067"/>
  <outline>
    <contour>
      <point x="296" y="-251" type="curve"/>
      <point x="482" y="-251"/>
      <point x="619" y="-161"/>
      <point x="619" y="44" type="curve"/>
      <point x="619" y="413" type="line"/>
      <point x="657" y="444" type="line"/>
      <point x="657" y="555" type="line"/>
      <point x="451" y="555" type="line"/>
      <point x="375" y="426" type="line"/>
      <point x="375" y="24" type="line"/>
      <point x="375" y="-50"/>
      <point x="336" y="-91"/>
      <point x="225" y="-91" type="curve"/>
      <point x="153" y="-91"/>
      <point x="103" y="-73"/>
      <point x="69" y="-53" type="curve"/>
      <point x="41" y="-204" type="line"/>
      <point x="94" y="-229"/>
      <point x="160" y="-251"/>
    </contour>
    <contour>
      <point x="505" y="166" type="curve"/>
      <point x="404" y="219" type="line"/>
      <point x="388" y="185"/>
      <point x="376" y="141"/>
      <point x="317" y="141" type="curve"/>
      <point x="277" y="141"/>
      <point x="261" y="204"/>
      <point x="261" y="280" type="curve"/>
      <point x="261" y="358"/>
      <point x="274" y="416"/>
      <point x="318" y="416" type="curve"/>
      <point x="363" y="416"/>
      <point x="373" y="393"/>
      <point x="392" y="363" type="curve"/>
      <point x="468" y="428" type="line"/>
      <point x="444" y="482"/>
      <point x="406" y="574"/>
      <point x="255" y="574" type="curve"/>
      <point x="106" y="574"/>
      <point x="17" y="490"/>
      <point x="17" y="271" type="curve" smooth="yes"/>
      <point x="17" y="60"/>
      <point x="104" y="-8"/>
      <point x="237" y="-8" type="curve"/>
      <point x="417" y="-8"/>
      <point x="458" y="90"/>
    </contour>
  </outline>
</glyph>
<glyph name="h" format="1">
  <advance width="698"/>
  <unicode hex="0068"/>
  <outline>
    <contour>
      <point x="340" y="0" type="line"/>
      <point x="340" y="109" type="line"/>
      <point x="299" y="135" type="line"/>
      <point x="299" y="390" type="line"/>
      <point x="271" y="415" type="line"/>
      <point x="271" y="797" type="line"/>
      <point x="12" y="797" type="line"/>
      <point x="12" y="691" type="line"/>
      <point x="50" y="656" type="line"/>
      <point x="50" y="135" type="line"/>
      <point x="18" y="109" type="line"/>
      <point x="18" y="0" type="line"/>
    </contour>
    <contour>
      <point x="488" y="565" type="curve"/>
      <point x="343" y="565"/>
      <point x="262" y="490"/>
      <point x="236" y="411" type="curve"/>
      <point x="286" y="353" type="line"/>
      <point x="305" y="384"/>
      <point x="334.0" y="410.0"/>
      <point x="369" y="410" type="curve"/>
      <point x="393" y="410"/>
      <point x="403.0" y="387.5"/>
      <point x="403" y="355" type="curve"/>
      <point x="403" y="135" type="line"/>
      <point x="380" y="109" type="line"/>
      <point x="380" y="0" type="line"/>
      <point x="686" y="0" type="line"/>
      <point x="686" y="109" type="line"/>
      <point x="644" y="135" type="line"/>
      <point x="644" y="371" type="line"/>
      <point x="644.0" y="511.0"/>
      <point x="610.707317073" y="565.0"/>
    </contour>
  </outline>
</glyph>
<glyph name="i" format="1">
  <advance width="382"/>
  <unicode hex="0069"/>
  <outline>
    <contour>
      <point x="183" y="833" type="curve" smooth="yes"/>
      <point x="296" y="833"/>
      <point x="321" y="815"/>
      <point x="321" y="721" type="curve" smooth="yes"/>
      <point x="321" y="627"/>
      <point x="296" y="607"/>
      <point x="183" y="607" type="curve" smooth="yes"/>
      <point x="69" y="607"/>
      <point x="46" y="627"/>
      <point x="46" y="721" type="curve" smooth="yes"/>
      <point x="46" y="815"/>
      <point x="69" y="833"/>
    </contour>
    <contour>
      <point x="30" y="0" type="line"/>
      <point x="372" y="0" type="line"/>
      <point x="372" y="109" type="line"/>
      <point x="316" y="135" type="line"/>
      <point x="315" y="135" type="line"/>
      <point x="315" y="555" type="line"/>
      <point x="16" y="555" type="line"/>
      <point x="16" y="444" type="line"/>
      <point x="66" y="414" type="line"/>
      <point x="66" y="134" type="line"/>
      <point x="30" y="109" type="line"/>
    </contour>
  </outline>
</glyph>
<glyph name="j" format="1">
  <advance width="327"/>
  <unicode hex="006A"/>
  <outline>
    <contour>
      <point x="-68" y="-202" type="line"/>
      <point x="91" y="-202"/>
      <point x="290" y="-169"/>
      <point x="290" y="39" type="curve" smooth="yes"/>
      <point x="290" y="555" type="line"/>
      <point x="-7" y="555" type="line"/>
      <point x="-7" y="444" type="line"/>
      <point x="44" y="409" type="line"/>
      <point x="44" y="50" type="line"/>
      <point x="44" y="-26"/>
      <point x="-11" y="-70"/>
      <point x="-68" y="-70" type="curve"/>
    </contour>
    <contour>
      <point x="155" y="833" type="curve" smooth="yes"/>
      <point x="268" y="833"/>
      <point x="293" y="815"/>
      <point x="293" y="721" type="curve" smooth="yes"/>
      <point x="293" y="627"/>
      <point x="268" y="607"/>
      <point x="155" y="607" type="curve" smooth="yes"/>
      <point x="41" y="607"/>
      <point x="18" y="627"/>
      <point x="18" y="721" type="curve" smooth="yes"/>
      <point x="18" y="815"/>
      <point x="41" y="833"/>
    </contour>
  </outline>
</glyph>
<glyph name="k" format="1">
  <advance width="684"/>
  <unicode hex="006B"/>
  <outline>
    <contour>
      <point x="258" y="150" type="line"/>
      <point x="221" y="252" type="line"/>
      <point x="420" y="432" type="line"/>
      <point x="377" y="450" type="line"/>
      <point x="377" y="559" type="line"/>
      <point x="672" y="555" type="line"/>
      <point x="672" y="446" type="line"/>
      <point x="628" y="433" type="line"/>
    </contour>
    <contour>
      <point x="449" y="0" type="line"/>
      <point x="356" y="291" type="line"/>
      <point x="530" y="406" type="line"/>
      <point x="639" y="132" type="line"/>
      <point x="681" y="110" type="line"/>
      <point x="681" y="0" type="line"/>
    </contour>
    <contour>
      <point x="23" y="0" type="line"/>
      <point x="23" y="109" type="line"/>
      <point x="60" y="135" type="line"/>
      <point x="60" y="654" type="line"/>
      <point x="9" y="689" type="line"/>
      <point x="9" y="800" type="line"/>
      <point x="304" y="800" type="line"/>
      <point x="304" y="135" type="line"/>
      <point x="342" y="109" type="line"/>
      <point x="342" y="0" type="line"/>
    </contour>
  </outline>
</glyph>
<glyph name="l" format="1">
  <advance width="355"/>
  <unicode hex="006C"/>
  <outline>
    <contour>
      <point x="30" y="0" type="line"/>
      <point x="342" y="0" type="line"/>
      <point x="342" y="109" type="line"/>
      <point x="306" y="135" type="line"/>
      <point x="305" y="135" type="line"/>
      <point x="305" y="800" type="line"/>
      <point x="19" y="800" type="line"/>
      <point x="19" y="699" type="line"/>
      <point x="57" y="665" type="line"/>
      <point x="57" y="135" type="line"/>
      <point x="30" y="109" type="line"/>
    </contour>
  </outline>
</glyph>
<glyph name="m" format="1">
  <advance width="1019"/>
  <unicode hex="006D"/>
  <outline>
    <contour>
      <point x="71" y="0" type="line"/>
      <point x="312" y="0" type="line"/>
      <point x="312" y="49" type="line"/>
      <point x="212" y="75" type="line"/>
      <point x="212" y="338" type="line"/>
      <point x="230" y="391"/>
      <point x="282" y="454"/>
      <point x="362" y="454" type="curve"/>
      <point x="438" y="454"/>
      <point x="457" y="412"/>
      <point x="457" y="305" type="curve" smooth="yes"/>
      <point x="457" y="73" type="line"/>
      <point x="418" y="49" type="line"/>
      <point x="418" y="0" type="line"/>
      <point x="659" y="0" type="line"/>
      <point x="659" y="49" type="line"/>
      <point x="557" y="75" type="line"/>
      <point x="557" y="344" type="line"/>
      <point x="577" y="403"/>
      <point x="632" y="454"/>
      <point x="709" y="454" type="curve"/>
      <point x="786" y="454"/>
      <point x="806" y="411"/>
      <point x="806" y="306" type="curve" smooth="yes"/>
      <point x="806" y="73" type="line"/>
      <point x="763" y="49" type="line"/>
      <point x="763" y="0" type="line"/>
      <point x="985" y="0" type="line"/>
      <point x="985" y="49" type="line"/>
      <point x="906" y="75" type="line"/>
      <point x="906" y="341" type="line"/>
      <point x="906" y="474"/>
      <point x="872" y="538"/>
      <point x="733" y="537" type="curve"/>
      <point x="638" y="538"/>
      <point x="568" y="496"/>
      <point x="518" y="428" type="curve"/>
      <point x="544" y="423" type="line"/>
      <point x="517" y="521"/>
      <point x="466" y="538"/>
      <point x="402" y="538" type="curve"/>
      <point x="290" y="538"/>
      <point x="224" y="483"/>
      <point x="178" y="410" type="curve"/>
      <point x="194" y="405" type="line"/>
      <point x="194" y="525" type="line"/>
      <point x="42" y="525" type="line"/>
      <point x="42" y="474" type="line"/>
      <point x="113" y="439" type="line"/>
      <point x="113" y="75" type="line"/>
      <point x="71" y="49" type="line"/>
    </contour>
  </outline>
</glyph>
<glyph name="n" format="1">
  <advance width="702"/>
  <unicode hex="006E"/>
  <outline>
    <contour>
      <point x="340" y="0" type="line"/>
      <point x="340" y="109" type="line"/>
      <point x="299" y="135" type="line"/>
      <point x="299" y="390" type="line"/>
      <point x="271" y="415" type="line"/>
      <point x="271" y="555" type="line"/>
      <point x="12" y="555" type="line"/>
      <point x="12" y="449" type="line"/>
      <point x="50" y="414" type="line"/>
      <point x="50" y="135" type="line"/>
      <point x="18" y="109" type="line"/>
      <point x="18" y="0" type="line"/>
    </contour>
    <contour>
      <point x="488" y="565" type="curve"/>
      <point x="343" y="565"/>
      <point x="262" y="490"/>
      <point x="236" y="411" type="curve"/>
      <point x="286" y="344" type="line"/>
      <point x="304" y="374"/>
      <point x="335" y="399"/>
      <point x="370" y="399" type="curve"/>
      <point x="393" y="399"/>
      <point x="403" y="381"/>
      <point x="403" y="355" type="curve"/>
      <point x="403" y="135" type="line"/>
      <point x="380" y="109" type="line"/>
      <point x="380" y="0" type="line"/>
      <point x="694" y="0" type="line"/>
      <point x="694" y="109" type="line"/>
      <point x="652" y="135" type="line"/>
      <point x="652" y="371" type="line"/>
      <point x="652" y="511"/>
      <point x="617" y="565"/>
    </contour>
  </outline>
</glyph>
<glyph name="o" format="1">
  <advance width="666"/>
  <unicode hex="006F"/>
  <outline>
    <contour>
      <point x="333" y="-22" type="curve" smooth="yes"/>
      <point x="579" y="-22"/>
      <point x="649" y="89"/>
      <point x="649" y="282" type="curve" smooth="yes"/>
      <point x="649" y="473"/>
      <point x="573" y="578"/>
      <point x="333" y="578" type="curve" smooth="yes"/>
      <point x="89" y="578"/>
      <point x="17" y="466"/>
      <point x="17" y="272" type="curve" smooth="yes"/>
      <point x="17" y="82"/>
      <point x="94" y="-22"/>
    </contour>
    <contour>
      <point x="335" y="104" type="curve" smooth="yes"/>
      <point x="292.0" y="104.0"/>
      <point x="282.0" y="164.715116279"/>
      <point x="282" y="281" type="curve" smooth="yes"/>
      <point x="282.0" y="383.193548387"/>
      <point x="289.0" y="441.0"/>
      <point x="335" y="441" type="curve" smooth="yes"/>
      <point x="380.0" y="441.0"/>
      <point x="390.0" y="380.096774194"/>
      <point x="390" y="281" type="curve" smooth="yes"/>
      <point x="390.0" y="161.627906977"/>
      <point x="382.0" y="104.0"/>
    </contour>
  </outline>
</glyph>
<glyph name="p" format="1">
  <advance width="655"/>
  <unicode hex="0070"/>
  <outline>
    <contour>
      <point x="18" y="-200" type="line"/>
      <point x="18" y="-91" type="line"/>
      <point x="50" y="-65" type="line"/>
      <point x="50" y="418" type="line"/>
      <point x="2" y="459" type="line"/>
      <point x="2" y="555" type="line"/>
      <point x="272" y="555" type="line"/>
      <point x="296" y="412" type="line"/>
      <point x="296" y="-61" type="line"/>
      <point x="357" y="-91" type="line"/>
      <point x="357" y="-200" type="line"/>
    </contour>
    <contour>
      <point x="260" y="203" type="line"/>
      <point x="270" y="187"/>
      <point x="290" y="138"/>
      <point x="340" y="138" type="curve"/>
      <point x="391" y="138"/>
      <point x="398" y="191"/>
      <point x="398" y="271" type="curve"/>
      <point x="398" y="363"/>
      <point x="390" y="395"/>
      <point x="359" y="396" type="curve"/>
      <point x="326" y="395"/>
      <point x="293" y="377"/>
      <point x="275" y="335" type="curve"/>
      <point x="236" y="397" type="line"/>
      <point x="259" y="471"/>
      <point x="325.903225806" y="570.0"/>
      <point x="446" y="570" type="curve"/>
      <point x="573" y="570"/>
      <point x="639" y="496"/>
      <point x="639" y="290" type="curve"/>
      <point x="639" y="93"/>
      <point x="581" y="-11"/>
      <point x="442" y="-11" type="curve"/>
      <point x="305" y="-11"/>
      <point x="258" y="88"/>
      <point x="242" y="131" type="curve"/>
    </contour>
  </outline>
</glyph>
<glyph name="q" format="1">
  <advance width="683"/>
  <unicode hex="0071"/>
  <outline>
    <contour>
      <point x="333" y="-200" type="line"/>
      <point x="675" y="-200" type="line"/>
      <point x="675" y="-91" type="line"/>
      <point x="628" y="-65" type="line"/>
      <point x="628" y="418" type="line"/>
      <point x="669" y="459" type="line"/>
      <point x="669" y="555" type="line"/>
      <point x="430" y="555" type="line"/>
      <point x="382" y="412" type="line"/>
      <point x="382" y="-65" type="line"/>
      <point x="333" y="-91" type="line"/>
    </contour>
    <contour>
      <point x="418" y="186" type="line"/>
      <point x="400" y="153"/>
      <point x="374.071428571" y="123.0"/>
      <point x="328" y="123" type="curve" smooth="yes"/>
      <point x="290" y="123"/>
      <point x="280.0" y="180.163120567"/>
      <point x="280" y="278" type="curve"/>
      <point x="280.0" y="360.222222222"/>
      <point x="290" y="418"/>
      <point x="336" y="418" type="curve" smooth="yes"/>
      <point x="373.025641026" y="418.0"/>
      <point x="392" y="375"/>
      <point x="412" y="345" type="curve"/>
      <point x="465" y="396" type="line"/>
      <point x="449" y="441"/>
      <point x="376.23853211" y="573.0"/>
      <point x="240" y="573" type="curve"/>
      <point x="75" y="573"/>
      <point x="17" y="452"/>
      <point x="17" y="267" type="curve"/>
      <point x="17" y="73"/>
      <point x="71" y="-16"/>
      <point x="211" y="-16" type="curve"/>
      <point x="350" y="-16"/>
      <point x="414" y="67"/>
      <point x="451" y="122" type="curve"/>
    </contour>
  </outline>
</glyph>
<glyph name="r" format="1">
  <advance width="571"/>
  <unicode hex="0072"/>
  <outline>
    <contour>
      <point x="11" y="555" type="line"/>
      <point x="11" y="444" type="line"/>
      <point x="62" y="409" type="line"/>
      <point x="62" y="134" type="line"/>
      <point x="30" y="108" type="line"/>
      <point x="30" y="-1" type="line"/>
      <point x="421" y="-1" type="line"/>
      <point x="421" y="108" type="line"/>
      <point x="311" y="135" type="line"/>
      <point x="311" y="403" type="line"/>
      <point x="293" y="431" type="line"/>
      <point x="293" y="555" type="line"/>
    </contour>
    <contour>
      <point x="564" y="545" type="line"/>
      <point x="545.0" y="556.0"/>
      <point x="510" y="565"/>
      <point x="452" y="565" type="curve"/>
      <point x="339" y="565"/>
      <point x="272.829062881" y="449.938048683"/>
      <point x="256" y="370" type="curve"/>
      <point x="291" y="313" type="line"/>
      <point x="328" y="424"/>
      <point x="373.0" y="440.0"/>
      <point x="488" y="440" type="curve"/>
      <point x="348" y="476" type="line"/>
      <point x="388" y="320" type="line"/>
      <point x="557" y="320" type="line"/>
    </contour>
  </outline>
</glyph>
<glyph name="s" format="1">
  <advance width="573"/>
  <unicode hex="0073"/>
  <outline>
    <contour>
      <point x="216" y="128" type="curve"/>
      <point x="204" y="190" type="line"/>
      <point x="18" y="195" type="line"/>
      <point x="14" y="30" type="line"/>
      <point x="61" y="8"/>
      <point x="159" y="-16"/>
      <point x="266" y="-16" type="curve"/>
      <point x="464" y="-16"/>
      <point x="560" y="28"/>
      <point x="560" y="170" type="curve"/>
      <point x="560.0" y="283.714285714"/>
      <point x="525.277519717" y="336.954458303"/>
      <point x="330" y="369" type="curve" smooth="yes"/>
      <point x="266" y="379"/>
      <point x="240" y="393"/>
      <point x="240" y="419" type="curve"/>
      <point x="240" y="445"/>
      <point x="264" y="459"/>
      <point x="294" y="459" type="curve"/>
      <point x="319" y="459"/>
      <point x="335" y="449"/>
      <point x="339" y="445" type="curve"/>
      <point x="350" y="394" type="line"/>
      <point x="529" y="389" type="line"/>
      <point x="535" y="529" type="line"/>
      <point x="477" y="554"/>
      <point x="395" y="575"/>
      <point x="298" y="575" type="curve"/>
      <point x="116" y="575"/>
      <point x="13" y="528"/>
      <point x="13" y="399" type="curve"/>
      <point x="13.0" y="294.705882353"/>
      <point x="47.549358749" y="243.094266792"/>
      <point x="244" y="202" type="curve" smooth="yes"/>
      <point x="308" y="189"/>
      <point x="326" y="177"/>
      <point x="326" y="156" type="curve"/>
      <point x="326" y="122"/>
      <point x="305" y="110"/>
      <point x="265" y="110" type="curve"/>
      <point x="243" y="110"/>
      <point x="225" y="121"/>
    </contour>
  </outline>
</glyph>
<glyph name="t" format="1">
  <advance width="409"/>
  <unicode hex="0074"/>
  <outline>
    <contour>
      <point x="1" y="555" type="line"/>
      <point x="403" y="555" type="line"/>
      <point x="403" y="413" type="line"/>
      <point x="1" y="413" type="line"/>
    </contour>
    <contour>
      <point x="409" y="25" type="line"/>
      <point x="372" y="2"/>
      <point x="323" y="-13"/>
      <point x="242" y="-13" type="curve"/>
      <point x="97" y="-13"/>
      <point x="45" y="47"/>
      <point x="45" y="185" type="curve"/>
      <point x="45" y="491" type="line"/>
      <point x="103" y="652" type="line"/>
      <point x="291" y="652" type="line"/>
      <point x="291" y="230" type="line"/>
      <point x="291" y="178"/>
      <point x="294.0" y="147.0"/>
      <point x="332" y="147" type="curve"/>
      <point x="350.673469388" y="147.0"/>
      <point x="385" y="153"/>
      <point x="393" y="160" type="curve"/>
    </contour>
  </outline>
</glyph>
<glyph name="u" format="1">
  <advance width="665"/>
  <unicode hex="0075"/>
  <outline>
    <contour>
      <point x="397" y="0" type="line"/>
      <point x="651" y="0" type="line"/>
      <point x="651" y="109" type="line"/>
      <point x="620" y="135" type="line"/>
      <point x="620" y="555" type="line"/>
      <point x="328" y="555" type="line"/>
      <point x="328" y="452" type="line"/>
      <point x="381" y="425" type="line"/>
      <point x="381" y="171" type="line"/>
      <point x="397" y="138" type="line"/>
    </contour>
    <contour>
      <point x="410" y="242" type="line"/>
      <point x="383" y="202"/>
      <point x="361" y="173"/>
      <point x="319" y="173" type="curve"/>
      <point x="290" y="173"/>
      <point x="282" y="196"/>
      <point x="282" y="225" type="curve"/>
      <point x="282" y="555" type="line"/>
      <point x="3" y="555" type="line"/>
      <point x="3" y="453" type="line"/>
      <point x="42" y="428" type="line"/>
      <point x="42" y="151" type="line"/>
      <point x="42" y="46"/>
      <point x="75" y="-13"/>
      <point x="209" y="-13" type="curve"/>
      <point x="314" y="-13"/>
      <point x="390" y="40"/>
      <point x="427" y="149" type="curve"/>
    </contour>
  </outline>
</glyph>
<glyph name="v" format="1">
  <advance width="628"/>
  <unicode hex="0076"/>
  <outline>
    <contour>
      <point x="186" y="0" type="line"/>
      <point x="426" y="0" type="line"/>
      <point x="611" y="430" type="line"/>
      <point x="648" y="456" type="line"/>
      <point x="648" y="555" type="line"/>
      <point x="342" y="555" type="line"/>
      <point x="342" y="456" type="line"/>
      <point x="376" y="430" type="line"/>
      <point x="329" y="242" type="line"/>
      <point x="320" y="166" type="line"/>
      <point x="310" y="242" type="line"/>
      <point x="265" y="430" type="line"/>
      <point x="296" y="456" type="line"/>
      <point x="296" y="555" type="line"/>
      <point x="-20" y="555" type="line"/>
      <point x="-20" y="456" type="line"/>
      <point x="14" y="430" type="line"/>
    </contour>
  </outline>
</glyph>
<glyph name="w" format="1">
  <advance width="964"/>
  <unicode hex="0077"/>
  <outline>
    <contour>
      <point x="666" y="207" type="line"/>
      <point x="658" y="280" type="line"/>
      <point x="586" y="555" type="line"/>
      <point x="379" y="555" type="line"/>
      <point x="300" y="280" type="line"/>
      <point x="292" y="203" type="line"/>
      <point x="284" y="280" type="line"/>
      <point x="264" y="430" type="line"/>
      <point x="296" y="456" type="line"/>
      <point x="296" y="555" type="line"/>
      <point x="-10" y="555" type="line"/>
      <point x="-10" y="456" type="line"/>
      <point x="30" y="432" type="line"/>
      <point x="146" y="0" type="line"/>
      <point x="399" y="0" type="line"/>
      <point x="504" y="438" type="line"/>
      <point x="452" y="438" type="line"/>
      <point x="542" y="0" type="line"/>
      <point x="795" y="0" type="line"/>
      <point x="930" y="431" type="line"/>
      <point x="964" y="456" type="line"/>
      <point x="964" y="555" type="line"/>
      <point x="662" y="555" type="line"/>
      <point x="662" y="456" type="line"/>
      <point x="694" y="430" type="line"/>
      <point x="695" y="430" type="line"/>
      <point x="674" y="280" type="line"/>
    </contour>
  </outline>
</glyph>
<glyph name="x" format="1">
  <advance width="725"/>
  <unicode hex="0078"/>
  <outline>
    <contour>
      <point x="255" y="308" type="line"/>
      <point x="44" y="133" type="line"/>
      <point x="5" y="109" type="line"/>
      <point x="5" y="0" type="line"/>
      <point x="324" y="0" type="line"/>
      <point x="324" y="109" type="line"/>
      <point x="280" y="135" type="line"/>
      <point x="396" y="253" type="line"/>
    </contour>
    <contour>
      <point x="347" y="326" type="line"/>
      <point x="490" y="255" type="line"/>
      <point x="667" y="421" type="line"/>
      <point x="710" y="446" type="line"/>
      <point x="710" y="555" type="line"/>
      <point x="404" y="555" type="line"/>
      <point x="404" y="446" type="line"/>
      <point x="445" y="420" type="line"/>
    </contour>
    <contour>
      <point x="15" y="555" type="line"/>
      <point x="15" y="446" type="line"/>
      <point x="58" y="421" type="line"/>
      <point x="240" y="260" type="line"/>
      <point x="293" y="260" type="line"/>
      <point x="422" y="135" type="line"/>
      <point x="378" y="109" type="line"/>
      <point x="378" y="0" type="line"/>
      <point x="720" y="0" type="line"/>
      <point x="720" y="109" type="line"/>
      <point x="681" y="134" type="line"/>
      <point x="473" y="315" type="line"/>
      <point x="426" y="319" type="line"/>
      <point x="316" y="420" type="line"/>
      <point x="357" y="446" type="line"/>
      <point x="357" y="555" type="line"/>
    </contour>
  </outline>
</glyph>
<glyph name="y" format="1">
  <advance width="674"/>
  <unicode hex="0079"/>
  <outline>
    <contour>
      <point x="60" y="-165" type="line"/>
      <point x="91" y="-181"/>
      <point x="165" y="-219"/>
      <point x="302" y="-219" type="curve"/>
      <point x="514" y="-219"/>
      <point x="637.033443874" y="-113.645664016"/>
      <point x="638" y="70" type="curve"/>
      <point x="638" y="555" type="line"/>
      <point x="349" y="555" type="line"/>
      <point x="349" y="432" type="line"/>
      <point x="389" y="406" type="line"/>
      <point x="389" y="34" type="line"/>
      <point x="389.0" y="-29.6936936937"/>
      <point x="355" y="-67"/>
      <point x="244" y="-67" type="curve"/>
      <point x="172" y="-67"/>
      <point x="122" y="-49"/>
      <point x="88" y="-29" type="curve"/>
    </contour>
    <contour>
      <point x="404" y="210" type="line"/>
      <point x="395" y="177"/>
      <point x="368" y="144"/>
      <point x="332" y="144" type="curve"/>
      <point x="303.0" y="144.0"/>
      <point x="293.0" y="175.252525253"/>
      <point x="293" y="263" type="curve"/>
      <point x="293" y="555" type="line"/>
      <point x="15" y="555" type="line"/>
      <point x="15" y="432" type="line"/>
      <point x="43" y="408" type="line"/>
      <point x="45" y="216" type="line"/>
      <point x="45" y="66"/>
      <point x="108" y="1"/>
      <point x="245" y="1" type="curve"/>
      <point x="399" y="1"/>
      <point x="457" y="125"/>
      <point x="486" y="190" type="curve"/>
    </contour>
  </outline>
</glyph>
<glyph name="z" format="1">
  <advance width="547"/>
  <unicode hex="007A"/>
  <outline>
    <contour>
      <point x="358" y="140" type="line"/>
      <point x="372" y="198" type="line"/>
      <point x="544" y="198" type="line"/>
      <point x="536" y="0" type="line"/>
      <point x="26" y="0" type="line"/>
      <point x="15" y="158" type="line"/>
      <point x="330" y="433" type="line"/>
      <point x="386" y="405" type="line"/>
      <point x="215" y="405" type="line"/>
      <point x="188" y="341" type="line"/>
      <point x="22" y="341" type="line"/>
      <point x="32" y="555" type="line"/>
      <point x="528" y="555" type="line"/>
      <point x="534" y="375" type="line"/>
      <point x="241" y="109" type="line"/>
      <point x="240" y="140" type="line"/>
    </contour>
  </outline>
</glyph>
<glyph name="quoteleft" format="1">
  <advance width="412"/>
  <unicode hex="2018"/>
  <outline>
    <contour>
      <point x="352" y="562" type="curve" smooth="yes"/>
      <point x="352" y="458"/>
      <point x="323" y="440"/>
      <point x="206" y="440" type="curve" smooth="yes"/>
      <point x="89" y="440"/>
      <point x="60" y="458"/>
      <point x="60" y="562" type="curve" smooth="yes"/>
      <point x="60" y="663"/>
      <point x="85" y="685"/>
      <point x="206" y="685" type="curve" smooth="yes"/>
      <point x="327" y="685"/>
      <point x="352" y="663"/>
    </contour>
    <contour>
      <point x="217" y="878" type="line"/>
      <point x="217" y="564" type="line"/>
      <point x="60" y="564" type="line"/>
      <point x="60" y="645" type="line"/>
      <point x="110" y="878" type="line"/>
    </contour>
  </outline>
</glyph>
<glyph name="quoteright" format="1">
  <advance width="412"/>
  <unicode hex="2019"/>
  <outline>
    <contour>
      <point x="60" y="756" type="curve" smooth="yes"/>
      <point x="60" y="860"/>
      <point x="89" y="878"/>
      <point x="206" y="878" type="curve" smooth="yes"/>
      <point x="323" y="878"/>
      <point x="352" y="860"/>
      <point x="352" y="756" type="curve" smooth="yes"/>
      <point x="352" y="655"/>
      <point x="327" y="633"/>
      <point x="206" y="633" type="curve" smooth="yes"/>
      <point x="85" y="633"/>
      <point x="60" y="655"/>
    </contour>
    <contour>
      <point x="195" y="440" type="line"/>
      <point x="195" y="754" type="line"/>
      <point x="352" y="754" type="line"/>
      <point x="352" y="673" type="line"/>
      <point x="302" y="440" type="line"/>
    </contour>
  </outline>
</glyph>
<glyph name="quotedblleft" format="1">
  <advance width="742"/>
  <unicode hex="201C"/>
  <outline>
    <contour>
      <point x="352" y="562" type="curve" smooth="yes"/>
      <point x="352" y="458"/>
      <point x="323" y="440"/>
      <point x="206" y="440" type="curve" smooth="yes"/>
      <point x="89" y="440"/>
      <point x="60" y="458"/>
      <point x="60" y="562" type="curve" smooth="yes"/>
      <point x="60" y="663"/>
      <point x="85" y="685"/>
      <point x="206" y="685" type="curve" smooth="yes"/>
      <point x="327" y="685"/>
      <point x="352" y="663"/>
    </contour>
    <contour>
      <point x="217" y="878" type="line"/>
      <point x="217" y="564" type="line"/>
      <point x="60" y="564" type="line"/>
      <point x="60" y="645" type="line"/>
      <point x="110" y="878" type="line"/>
    </contour>
    <contour>
      <point x="682" y="562" type="curve" smooth="yes"/>
      <point x="682" y="458"/>
      <point x="653" y="440"/>
      <point x="536" y="440" type="curve" smooth="yes"/>
      <point x="419" y="440"/>
      <point x="390" y="458"/>
      <point x="390" y="562" type="curve" smooth="yes"/>
      <point x="390" y="663"/>
      <point x="415" y="685"/>
      <point x="536" y="685" type="curve" smooth="yes"/>
      <point x="657" y="685"/>
      <point x="682" y="663"/>
    </contour>
    <contour>
      <point x="547" y="878" type="line"/>
      <point x="547" y="564" type="line"/>
      <point x="390" y="564" type="line"/>
      <point x="390" y="645" type="line"/>
      <point x="440" y="878" type="line"/>
    </contour>
  </outline>
</glyph>
<glyph name="quotedblright" format="1">
  <advance width="742"/>
  <unicode hex="201D"/>
  <outline>
    <contour>
      <point x="390" y="756" type="curve" smooth="yes"/>
      <point x="390" y="860"/>
      <point x="419" y="878"/>
      <point x="536" y="878" type="curve" smooth="yes"/>
      <point x="653" y="878"/>
      <point x="682" y="860"/>
      <point x="682" y="756" type="curve" smooth="yes"/>
      <point x="682" y="655"/>
      <point x="657" y="633"/>
      <point x="536" y="633" type="curve" smooth="yes"/>
      <point x="415" y="633"/>
      <point x="390" y="655"/>
    </contour>
    <contour>
      <point x="525" y="440" type="line"/>
      <point x="525" y="754" type="line"/>
      <point x="682" y="754" type="line"/>
      <point x="682" y="673" type="line"/>
      <point x="632" y="440" type="line"/>
    </contour>
    <contour>
      <point x="60" y="756" type="curve" smooth="yes"/>
      <point x="60" y="860"/>
      <point x="89" y="878"/>
      <point x="206" y="878" type="curve" smooth="yes"/>
      <point x="323" y="878"/>
      <point x="352" y="860"/>
      <point x="352" y="756" type="curve" smooth="yes"/>
      <point x="352" y="655"/>
      <point x="327" y="633"/>
      <point x="206" y="633" type="curve" smooth="yes"/>
      <point x="85" y="633"/>
      <point x="60" y="655"/>
    </contour>
    <contour>
      <point x="195" y="440" type="line"/>
      <point x="195" y="754" type="line"/>
      <point x="352" y="754" type="line"/>
      <point x="352" y="673" type="line"/>
      <point x="302" y="440" type="line"/>
    </contour>
  </outline>
</glyph>
